<svg width="432" height="345" xmlns="http://www.w3.org/2000/svg" xmlns:xlink="http://www.w3.org/1999/xlink" xml:space="preserve" overflow="hidden"><defs><clipPath id="clip0"><rect x="2024" y="249" width="432" height="345"/></clipPath></defs><g clip-path="url(#clip0)" transform="translate(-2024 -249)"><path d="M2071.66 294.088C2070.84 270.63 2089.08 249 2113.73 249L2366.31 249C2390.96 249 2409.19 270.63 2408.38 294.088 2407.59 316.62 2408.61 345.809 2415.94 369.607 2423.29 393.482 2435.69 408.568 2456 410.509L2456 432.494C2435.69 434.435 2423.29 449.522 2415.94 473.396 2408.61 497.195 2407.59 526.384 2408.38 548.916 2409.19 572.374 2390.96 594 2366.31 594L2113.73 594C2089.08 594 2070.84 572.37 2071.66 548.916 2072.44 526.384 2071.42 497.195 2064.09 473.396 2056.74 449.526 2044.31 434.435 2024 432.494L2024 410.509C2044.31 408.571 2056.74 393.482 2064.09 369.607 2071.42 345.809 2072.44 316.62 2071.66 294.088Z" fill="#FFFFFF" fill-rule="evenodd"/><path d="M2251.08 514.931C2290.92 514.931 2314.93 495.295 2314.93 462.907 2314.93 438.424 2297.8 420.7 2272.36 417.894L2272.36 416.874C2291.05 413.814 2305.72 396.345 2305.72 376.836 2305.72 349.038 2283.91 330.931 2250.69 330.931L2175.93 330.931 2175.93 514.931ZM2205 354.266 2243.68 354.266C2264.7 354.266 2276.64 363.702 2276.64 380.788 2276.64 399.023 2262.76 409.224 2237.58 409.224L2205 409.224ZM2205 491.596 2205 431.028 2243.42 431.028C2270.93 431.028 2285.21 441.228 2285.21 461.121 2285.21 481.012 2271.32 491.596 2245.11 491.596Z" fill="#4B505F" fill-rule="evenodd"/></g></svg>