<svg width="947" height="947" xmlns="http://www.w3.org/2000/svg" xmlns:xlink="http://www.w3.org/1999/xlink" xml:space="preserve" overflow="hidden"><g transform="translate(-2289 -340)"><path d="M3217 813.5C3217 1064.51 3013.51 1268 2762.5 1268 2511.49 1268 2308 1064.51 2308 813.5 2308 562.486 2511.49 359 2762.5 359 3013.51 359 3217 562.486 3217 813.5Z" stroke="#FFFFFF" stroke-width="37.8125" stroke-miterlimit="8" fill="none" fill-rule="evenodd"/><path d="M2673.35 640.255C2680.29 641.523 2686.95 636.914 2688.22 629.96 2689.48 623.006 2684.88 616.34 2677.94 615.071L2673.35 640.255ZM2511.61 669.213 2522.68 675.606 2522.68 675.606 2511.61 669.213ZM2513.91 792.663C2517.41 798.798 2525.22 800.925 2531.35 797.412 2537.47 793.9 2539.6 786.08 2536.09 779.945L2513.91 792.663ZM2576.06 833.977C2571.32 828.745 2563.23 828.357 2558.01 833.111 2552.79 837.864 2552.4 845.959 2557.14 851.192L2576.06 833.977ZM2690.06 940.325 2683.66 951.406 2690.06 940.325ZM2996.59 995.887C3002.42 991.901 3003.91 983.937 2999.93 978.099 2995.95 972.26 2988 970.761 2982.17 974.747L2996.59 995.887ZM2677.94 615.071C2638.39 607.846 2601.56 607.501 2570.95 614.904 2540.29 622.32 2514.94 637.8 2500.53 662.821L2522.68 675.606C2532.58 658.403 2550.87 646.097 2576.95 639.788 2603.1 633.465 2636.14 633.457 2673.35 640.255L2677.94 615.071ZM2500.53 662.821C2479.14 699.987 2487.91 747.183 2513.91 792.663L2536.09 779.945C2511.91 737.638 2508.01 701.091 2522.68 675.606L2500.53 662.821ZM2557.14 851.192C2589.87 887.268 2633.02 922.08 2683.66 951.406L2696.46 929.245C2647.88 901.111 2606.85 867.916 2576.06 833.977L2557.14 851.192ZM2683.66 951.406C2743.99 986.341 2805.78 1008.19 2860.37 1016.12 2914.5 1023.99 2963.6 1018.45 2996.59 995.887L2982.17 974.747C2956.86 992.059 2915.43 998.262 2864.04 990.79 2813.11 983.384 2754.39 962.794 2696.46 929.245L2683.66 951.406ZM3056.5 963.125C3056.5 938.422 3036.53 918.362 3011.85 918.362L3011.85 943.961C3022.38 943.961 3030.94 952.522 3030.94 963.125L3056.5 963.125ZM3011.85 918.362C2987.18 918.362 2967.21 938.422 2967.21 963.125L2992.77 963.125C2992.77 952.522 3001.33 943.961 3011.85 943.961L3011.85 918.362ZM2967.21 963.125C2967.21 987.828 2987.18 1007.89 3011.85 1007.89L3011.85 982.289C3001.33 982.289 2992.77 973.728 2992.77 963.125L2967.21 963.125ZM3011.85 1007.89C3036.53 1007.89 3056.5 987.828 3056.5 963.125L3030.94 963.125C3030.94 973.728 3022.38 982.289 3011.85 982.289L3011.85 1007.89Z" stroke="#FFFFFF" stroke-width="3.4375" stroke-miterlimit="8" fill="#FFFFFF" fill-rule="evenodd"/><path d="M2957.81 824.05C2953.25 829.454 2953.93 837.539 2959.32 842.106 2964.71 846.674 2972.78 845.995 2977.33 840.591L2957.81 824.05ZM3013.41 669.253 3002.33 675.652 3013.41 669.253ZM2908.24 609.501C2901.18 609.409 2895.39 615.07 2895.29 622.146 2895.2 629.222 2900.85 635.032 2907.91 635.125L2908.24 609.501ZM2840.31 642.522C2847.21 641.038 2851.61 634.225 2850.13 627.306 2848.65 620.388 2841.85 615.982 2834.95 617.467L2840.31 642.522ZM2690.07 688.738 2696.47 699.83 2690.07 688.738ZM2489.58 934.544C2490.6 941.545 2497.09 946.389 2504.08 945.363 2511.06 944.338 2515.89 937.83 2514.87 930.829L2489.58 934.544ZM2977.33 840.591C3003.23 809.876 3021.84 778.102 3030.7 747.856 3039.57 717.556 3038.85 687.844 3024.48 662.854L3002.33 675.652C3012.22 692.84 3013.72 714.856 3006.17 740.641 2998.6 766.481 2982.17 795.152 2957.81 824.05L2977.33 840.591ZM3024.48 662.854C3003.43 626.247 2959.38 610.169 2908.24 609.501L2907.91 635.125C2955.29 635.743 2987.91 650.569 3002.33 675.652L3024.48 662.854ZM2834.95 617.467C2787.02 627.776 2734.84 647.988 2683.67 677.647L2696.47 699.83C2745.56 671.377 2795.25 652.215 2840.31 642.522L2834.95 617.467ZM2683.67 677.647C2621.57 713.646 2570.66 757.946 2536.44 802.772 2502.56 847.17 2483.65 894.019 2489.58 934.544L2514.87 930.829C2510.42 900.361 2524.55 860.525 2556.75 818.342 2588.61 776.588 2636.82 734.409 2696.47 699.83L2683.67 677.647Z" stroke="#FFFFFF" stroke-width="3.4375" stroke-miterlimit="8" fill="#FFFFFF" fill-rule="evenodd"/><path d="M2662.78 985.266C2660.46 978.918 2653.3 975.613 2646.8 977.882 2640.29 980.152 2636.91 987.138 2639.23 993.485L2662.78 985.266ZM2867.57 1047.62C2871.12 1041.84 2869.2 1034.35 2863.28 1030.88 2857.36 1027.41 2849.68 1029.28 2846.13 1035.06L2867.57 1047.62ZM2874.56 971.365C2872.5 977.8 2876.18 984.645 2882.77 986.655 2889.36 988.665 2896.37 985.079 2898.43 978.645L2874.56 971.365ZM2908 828.209 2895.49 828.209 2908 828.209ZM2802.22 546.557C2795.91 543.817 2788.52 546.589 2785.72 552.749 2782.91 558.908 2785.75 566.121 2792.06 568.86L2802.22 546.557ZM2639.23 993.485C2652.48 1029.64 2670.19 1060.27 2691.41 1082.06 2712.66 1103.89 2738.12 1117.5 2766.29 1117.5L2766.29 1093.09C2746.94 1093.09 2727.62 1083.83 2709.53 1065.25 2691.41 1046.63 2675.24 1019.29 2662.78 985.266L2639.23 993.485ZM2766.29 1117.5C2807.18 1117.5 2842.07 1089.1 2867.57 1047.62L2846.13 1035.06C2822.52 1073.45 2794.28 1093.09 2766.29 1093.09L2766.29 1117.5ZM2898.43 978.645C2912.47 934.796 2920.5 883.24 2920.5 828.209L2895.49 828.209C2895.49 881.006 2887.78 930.087 2874.56 971.365L2898.43 978.645ZM2920.5 828.209C2920.5 760.721 2908.42 698.39 2887.94 649.082 2867.65 600.216 2838.26 562.2 2802.22 546.557L2792.06 568.86C2819.45 580.751 2845.49 611.83 2864.77 658.252 2883.86 704.232 2895.49 763.383 2895.49 828.209L2920.5 828.209Z" stroke="#FFFFFF" stroke-width="6.875" stroke-miterlimit="8" fill="#FFFFFF" fill-rule="evenodd"/><path d="M3044 962C3044 944.327 3029.68 930 3012 930 2994.33 930 2980 944.327 2980 962 2980 979.674 2994.33 994.001 3012 994.001 3029.68 994.001 3044 979.674 3044 962L3044 962Z" stroke="#FFFFFF" stroke-width="12.375" stroke-linecap="round" stroke-miterlimit="8" fill="none" fill-rule="evenodd"/><path d="M2513 994.501C2530.4 994.501 2544.5 980.174 2544.5 962.5 2544.5 944.827 2530.4 930.5 2513 930.5 2495.6 930.5 2481.5 944.827 2481.5 962.5 2481.5 980.174 2495.6 994.501 2513 994.501L2513 994.501 2513 994.501Z" stroke="#FFFFFF" stroke-width="20.625" stroke-linecap="round" stroke-miterlimit="8" fill="none" fill-rule="evenodd"/><path d="M2794 524C2794 541.674 2779.67 556.001 2762 556.001 2744.33 556.001 2730 541.674 2730 524 2730 506.327 2744.33 492 2762 492 2779.67 492 2794 506.327 2794 524Z" stroke="#FFFFFF" stroke-width="27.5" stroke-linecap="round" stroke-miterlimit="8" fill="none" fill-rule="evenodd"/><path d="M2768.62 842.84C2752.97 846.222 2737.55 836.274 2734.16 820.622 2730.78 804.97 2740.72 789.548 2756.38 786.16 2772.03 782.777 2787.45 792.725 2790.84 808.378 2794.22 824.03 2784.28 839.451 2768.62 842.84Z" stroke="#FFFFFF" stroke-width="20.625" stroke-miterlimit="8" fill="#FFFFFF" fill-rule="evenodd"/></g></svg>