<svg width="1767" height="1775" xmlns="http://www.w3.org/2000/svg" xmlns:xlink="http://www.w3.org/1999/xlink" xml:space="preserve" overflow="hidden"><g transform="translate(-2530 -699)"><path d="M3413.5 742 4258 1079.8 4258 2093.2 3413.5 2431 2569 2093.2 2569 1079.8Z" stroke="#FFFFFF" stroke-width="77.9167" stroke-miterlimit="8" fill="none" fill-rule="evenodd"/><path d="M3552 1585C3552 1660.11 3491.33 1721 3416.5 1721 3341.67 1721 3281 1660.11 3281 1585 3281 1509.89 3341.67 1449 3416.5 1449 3491.33 1449 3552 1509.89 3552 1585Z" stroke="#FFFFFF" stroke-width="66.0599" stroke-miterlimit="8" fill="#FFFFFF" fill-rule="evenodd"/><path d="M4017.86 1996.64C3931.44 2123.48 3592.1 2042.83 3259.91 1816.51 2927.72 1590.2 2728.48 1303.91 2814.89 1177.07 2901.31 1050.24 3240.65 1130.88 3572.84 1357.2 3905.03 1583.52 4104.27 1869.81 4017.86 1996.64Z" stroke="#FFFFFF" stroke-width="66.0599" stroke-miterlimit="8" fill="none" fill-rule="evenodd"/><path d="M1455.62 277.89C1455.62 431.365 1129.77 555.78 727.808 555.78 325.85 555.78 0 431.365 0 277.89 0 124.415 325.85 0 727.808 0 1129.77 0 1455.62 124.415 1455.62 277.89Z" stroke="#FFFFFF" stroke-width="66.0599" stroke-miterlimit="8" fill="none" fill-rule="evenodd" transform="matrix(-0.826429 0.563041 0.563041 0.826429 3845.48 947.416)"/></g></svg>