<svg width="1531" height="2181" xmlns="http://www.w3.org/2000/svg" xmlns:xlink="http://www.w3.org/1999/xlink" xml:space="preserve" overflow="hidden"><g transform="translate(-388 -121)"><path d="M411 1220.71C411 1161.23 459.225 1113 518.714 1113L1784.29 1113C1843.77 1113 1892 1161.23 1892 1220.71L1892 2171.29C1892 2230.77 1843.77 2279 1784.29 2279L518.714 2279C459.225 2279 411 2230.77 411 2171.29Z" stroke="#FFFFFF" stroke-width="45.8333" stroke-miterlimit="8" fill="none" fill-rule="evenodd"/><path d="M1755 289 1826.17 1112.54" stroke="#FFFFFF" stroke-width="45.8333" stroke-miterlimit="8" fill="none" fill-rule="evenodd"/><path d="M0 0 1399.28 541.779" stroke="#FFFFFF" stroke-width="160.417" stroke-miterlimit="8" fill="none" fill-rule="evenodd" transform="matrix(1 0 0 -1 439 742.779)"/><path d="M439 201 1826.23 772.547" stroke="#FFFFFF" stroke-width="160.417" stroke-miterlimit="8" fill="none" fill-rule="evenodd"/><path d="M0 0 48.1625 828.097" stroke="#FFFFFF" stroke-width="45.8333" stroke-miterlimit="8" fill="none" fill-rule="evenodd" transform="matrix(-1 0 0 1 541.162 269)"/><path d="M1668 725 1755.73 1112.7" stroke="#FFFFFF" stroke-width="45.8333" stroke-miterlimit="8" fill="none" fill-rule="evenodd"/><path d="M0 0 111.018 395.683" stroke="#FFFFFF" stroke-width="45.8333" stroke-miterlimit="8" fill="none" fill-rule="evenodd" transform="matrix(-1 0 0 1 665.018 717)"/></g></svg>