<svg width="727" height="725" xmlns="http://www.w3.org/2000/svg" xmlns:xlink="http://www.w3.org/1999/xlink" xml:space="preserve" overflow="hidden"><g transform="translate(-2299 -891)"><g><g><g><path d="M2561.61 1050.7C2513.91 1063.96 2482.67 1086.01 2482.67 1111 2482.67 1151.52 2564.75 1184.33 2666 1184.33 2680.17 1184.33 2693.98 1183.69 2707.21 1182.46" stroke="#FFFFFF" stroke-width="27.5" stroke-linecap="round" stroke-linejoin="round" fill="none"/><path d="M2770.35 1171.3C2818.08 1158.06 2849.33 1135.99 2849.33 1111 2849.33 1070.48 2767.26 1037.67 2666 1037.67 2651.83 1037.67 2638.02 1038.31 2624.75 1039.54" stroke="#FFFFFF" stroke-width="27.5" stroke-linecap="round" stroke-linejoin="round" fill="none"/><path d="M2561.59 1171.26C2549.2 1219.2 2552.7 1257.3 2574.33 1269.77 2609.41 1290.03 2678.89 1235.35 2729.51 1147.67 2736.6 1135.38 2742.95 1123.12 2748.5 1111" stroke="#FFFFFF" stroke-width="27.5" stroke-linecap="round" stroke-linejoin="round" fill="none"/><path d="M2770.39 1050.79C2782.8 1002.83 2779.32 964.7 2757.67 952.233 2722.6 931.975 2653.11 986.645 2602.49 1074.33 2595.4 1086.62 2589.06 1098.9 2583.48 1111" stroke="#FFFFFF" stroke-width="27.5" stroke-linecap="round" stroke-linejoin="round" fill="none"/><path d="M2666 990.44C2630.71 955.753 2595.97 939.73 2574.33 952.233 2539.26 972.473 2551.86 1059.98 2602.49 1147.67 2609.57 1159.95 2617.03 1171.57 2624.71 1182.43" stroke="#FFFFFF" stroke-width="27.5" stroke-linecap="round" stroke-linejoin="round" fill="none"/><path d="M2666 1231.52C2701.31 1266.23 2736.05 1282.27 2757.67 1269.77 2792.74 1249.53 2780.14 1162.02 2729.51 1074.33 2722.63 1062.42 2715.21 1050.81 2707.29 1039.55" stroke="#FFFFFF" stroke-width="27.5" stroke-linecap="round" stroke-linejoin="round" fill="none"/><path d="M2656.83 1126.88C2665.57 1132 2676.8 1129.07 2681.92 1120.33 2687.04 1111.6 2684.11 1100.37 2675.38 1095.24 2675.31 1095.2 2675.24 1095.16 2675.17 1095.12 2666.36 1090.12 2655.17 1093.2 2650.17 1102 2645.21 1110.72 2648.18 1121.8 2656.83 1126.88Z" stroke="#FFFFFF" stroke-width="27.5" stroke-linecap="round" stroke-linejoin="round" fill="none"/></g></g></g><text fill="#FFFFFF" font-family="Aptos,Aptos_MSFontService,sans-serif" font-weight="400" font-size="183" transform="matrix(1 0 0 1 2409.44 1455)">N</text><text fill="#FFFFFF" font-family="Aptos,Aptos_MSFontService,sans-serif" font-weight="400" font-size="183" transform="matrix(1 0 0 1 2538.92 1455)">ative</text></g></svg>