<svg width="128" height="128" xmlns="http://www.w3.org/2000/svg" xmlns:xlink="http://www.w3.org/1999/xlink" xml:space="preserve" overflow="hidden"><defs><clipPath id="clip0"><rect x="576" y="296" width="128" height="128"/></clipPath></defs><g clip-path="url(#clip0)" transform="translate(-576 -296)"><path d="M640.004 321.602C622.937 321.602 612.274 330.132 608.004 347.199 614.402 338.668 621.871 335.469 630.402 337.602 635.273 338.816 638.754 342.348 642.609 346.262 648.883 352.629 656.145 360 672.004 360 689.07 360 699.734 351.469 704.004 334.398 697.605 342.934 690.137 346.133 681.605 344 676.735 342.785 673.258 339.254 669.398 335.34 663.128 328.973 655.868 321.602 640.004 321.602ZM608.004 360C590.938 360 580.274 368.531 576.004 385.602 582.402 377.066 589.87 373.867 598.402 376 603.273 377.215 606.754 380.746 610.609 384.66 616.883 391.027 624.145 398.398 640.004 398.398 657.07 398.398 667.734 389.868 672.004 372.801 665.605 381.332 658.137 384.531 649.605 382.398 644.735 381.184 641.258 377.652 637.398 373.738 631.128 367.371 623.868 360 608.004 360Z" fill="#FFFFFF"/></g></svg>